<?xml version="1.0" encoding="ISO-8859-1" standalone="no"?><svg version="1.1" xmlns:xlink="http://www.w3.org/1999/xlink" xmlns="http://www.w3.org/2000/svg"  >
<line style="stroke:#282828; stroke-width:1; " y2="415.0" x1="280" y1="500" x2="280.0"  />
<line style="stroke:#3f3f3f; stroke-width:1; " y2="343.9592378685853" x1="280.0" y1="415.0" x2="254.14327716457944"  />
<line style="stroke:#565656; stroke-width:1; " y2="293.247095734109" x1="254.14327716457944" y1="343.9592378685853" x2="211.59073740333054"  />
<line style="stroke:#6e6e6e; stroke-width:1; " y2="264.847095734109" x1="211.59073740333054" y1="293.247095734109" x2="162.40049446837443"  />
<line style="stroke:#858585; stroke-width:1; " y2="256.6161721126965" x1="162.40049446837443" y1="264.847095734109" x2="115.72060697559579"  />
<line style="stroke:#9c9c9c; stroke-width:1; " y2="263.2148028640399" x1="115.72060697559579" y1="256.6161721126965" x2="78.29791236113189"  />
<line style="stroke:#b4b4b4; stroke-width:1; " y2="277.5148028640399" x1="78.29791236113189" y1="263.2148028640399" x2="53.529585812896954"  />
<line style="stroke:#cbcbcb; stroke-width:1; " y2="292.22285617192426" x1="53.529585812896954" y1="277.5148028640399" x2="41.1880637069154"  />
<line style="stroke:#e2e2e2; stroke-width:1; " y2="301.43184385562614" x1="41.1880637069154" y1="292.22285617192426" x2="37.83626630232384"  />
<line style="stroke:#e2e2e2; stroke-width:1; " y2="297.12285617192424" x1="41.1880637069154" y1="292.22285617192426" x2="32.701014749827905"  />
<line style="stroke:#cbcbcb; stroke-width:1; " y2="280.848847875245" x1="53.529585812896954" y1="277.5148028640399" x2="34.62127695506257"  />
<line style="stroke:#e2e2e2; stroke-width:1; " y2="285.74884787524496" x1="34.62127695506257" y1="280.848847875245" x2="26.134227997975074"  />
<line style="stroke:#e2e2e2; stroke-width:1; " y2="279.1470957341091" x1="34.62127695506257" y1="280.848847875245" x2="24.970160975542935"  />
<line style="stroke:#b4b4b4; stroke-width:1; " y2="258.24846498276565" x1="78.29791236113189" y1="263.2148028640399" x2="50.132410624982754"  />
<line style="stroke:#cbcbcb; stroke-width:1; " y2="261.58250999397075" x1="50.132410624982754" y1="258.24846498276565" x2="31.224101767148365"  />
<line style="stroke:#e2e2e2; stroke-width:1; " y2="266.4825099939707" x1="31.224101767148365" y1="261.58250999397075" x2="22.737052810060874"  />
<line style="stroke:#e2e2e2; stroke-width:1; " y2="259.88075785283485" x1="31.224101767148365" y1="261.58250999397075" x2="21.57298578762873"  />
<line style="stroke:#cbcbcb; stroke-width:1; " y2="248.64846498276566" x1="50.132410624982754" y1="258.24846498276565" x2="33.50472287232154"  />
<line style="stroke:#e2e2e2; stroke-width:1; " y2="246.94671284162973" x1="33.50472287232154" y1="248.64846498276566" x2="23.853606892801903"  />
<line style="stroke:#e2e2e2; stroke-width:1; " y2="241.14122944019968" x1="33.50472287232154" y1="248.64846498276566" x2="27.205404297393454"  />
<line style="stroke:#9c9c9c; stroke-width:1; " y2="237.61617211269652" x1="115.72060697559579" y1="256.6161721126965" x2="82.81164163178713"  />
<line style="stroke:#b4b4b4; stroke-width:1; " y2="232.64983423142232" x1="82.81164163178713" y1="237.61617211269652" x2="54.64613989563799"  />
<line style="stroke:#cbcbcb; stroke-width:1; " y2="235.98387924262738" x1="54.64613989563799" y1="232.64983423142232" x2="35.7378310378036"  />
<line style="stroke:#e2e2e2; stroke-width:1; " y2="240.8838792426274" x1="35.7378310378036" y1="235.98387924262738" x2="27.250782080716107"  />
<line style="stroke:#e2e2e2; stroke-width:1; " y2="234.28212710149145" x1="35.7378310378036" y1="235.98387924262738" x2="26.086715058283968"  />
<line style="stroke:#cbcbcb; stroke-width:1; " y2="223.04983423142232" x1="54.64613989563799" y1="232.64983423142232" x2="38.01845214297677"  />
<line style="stroke:#e2e2e2; stroke-width:1; " y2="221.3480820902864" x1="38.01845214297677" y1="223.04983423142232" x2="28.367336163457136"  />
<line style="stroke:#e2e2e2; stroke-width:1; " y2="215.54259868885634" x1="38.01845214297677" y1="223.04983423142232" x2="31.719133568048687"  />
<line style="stroke:#b4b4b4; stroke-width:1; " y2="215.70730103949376" x1="82.81164163178713" y1="237.61617211269652" x2="64.42791599475211"  />
<line style="stroke:#cbcbcb; stroke-width:1; " y2="206.10730103949376" x1="64.42791599475211" y1="215.70730103949376" x2="47.800228242090895"  />
<line style="stroke:#e2e2e2; stroke-width:1; " y2="204.40554889835784" x1="47.800228242090895" y1="206.10730103949376" x2="38.149112262571265"  />
<line style="stroke:#e2e2e2; stroke-width:1; " y2="198.60006549692778" x1="47.800228242090895" y1="206.10730103949376" x2="41.500909667162816"  />
<line style="stroke:#cbcbcb; stroke-width:1; " y2="197.66520272040432" x1="64.42791599475211" y1="215.70730103949376" x2="57.861129242899274"  />
<line style="stroke:#e2e2e2; stroke-width:1; " y2="190.15796717783834" x1="57.861129242899274" y1="197.66520272040432" x2="51.561810667971194"  />
<line style="stroke:#e2e2e2; stroke-width:1; " y2="187.86520272040434" x1="57.861129242899274" y1="197.66520272040432" x2="57.861129242899274"  />
<line style="stroke:#858585; stroke-width:1; " y2="228.53658913026948" x1="162.40049446837443" y1="264.847095734109" x2="131.93236176923247"  />
<line style="stroke:#9c9c9c; stroke-width:1; " y2="209.53658913026948" x1="131.93236176923247" y1="228.53658913026948" x2="99.02339642542381"  />
<line style="stroke:#b4b4b4; stroke-width:1; " y2="204.57025124899528" x1="99.02339642542381" y1="209.53658913026948" x2="70.85789468927467"  />
<line style="stroke:#cbcbcb; stroke-width:1; " y2="207.90429626020034" x1="70.85789468927467" y1="204.57025124899528" x2="51.94958583144029"  />
<line style="stroke:#e2e2e2; stroke-width:1; " y2="212.80429626020035" x1="51.94958583144029" y1="207.90429626020034" x2="43.46253687435279"  />
<line style="stroke:#e2e2e2; stroke-width:1; " y2="206.2025441190644" x1="51.94958583144029" y1="207.90429626020034" x2="42.29846985192066"  />
<line style="stroke:#cbcbcb; stroke-width:1; " y2="194.97025124899528" x1="70.85789468927467" y1="204.57025124899528" x2="54.230206936613456"  />
<line style="stroke:#e2e2e2; stroke-width:1; " y2="193.26849910785936" x1="54.230206936613456" y1="194.97025124899528" x2="44.579090957093825"  />
<line style="stroke:#e2e2e2; stroke-width:1; " y2="187.4630157064293" x1="54.230206936613456" y1="194.97025124899528" x2="47.930888361685376"  />
<line style="stroke:#b4b4b4; stroke-width:1; " y2="187.62771805706672" x1="99.02339642542381" y1="209.53658913026948" x2="80.6396707883888"  />
<line style="stroke:#cbcbcb; stroke-width:1; " y2="178.02771805706672" x1="80.6396707883888" y1="187.62771805706672" x2="64.01198303572758"  />
<line style="stroke:#e2e2e2; stroke-width:1; " y2="176.3259659159308" x1="64.01198303572758" y1="178.02771805706672" x2="54.36086705620795"  />
<line style="stroke:#e2e2e2; stroke-width:1; " y2="170.52048251450074" x1="64.01198303572758" y1="178.02771805706672" x2="57.7126644607995"  />
<line style="stroke:#cbcbcb; stroke-width:1; " y2="169.58561973797728" x1="80.6396707883888" y1="187.62771805706672" x2="74.07288403653595"  />
<line style="stroke:#e2e2e2; stroke-width:1; " y2="162.0783841954113" x1="74.07288403653595" y1="169.58561973797728" x2="67.77356546160787"  />
<line style="stroke:#e2e2e2; stroke-width:1; " y2="159.7856197379773" x1="74.07288403653595" y1="169.58561973797728" x2="74.07288403653595"  />
<line style="stroke:#9c9c9c; stroke-width:1; " y2="192.82826954040496" x1="131.93236176923247" y1="228.53658913026948" x2="118.93559632285707"  />
<line style="stroke:#b4b4b4; stroke-width:1; " y2="170.9193984672022" x1="118.93559632285707" y1="192.82826954040496" x2="100.55187068582205"  />
<line style="stroke:#cbcbcb; stroke-width:1; " y2="161.3193984672022" x1="100.55187068582205" y1="170.9193984672022" x2="83.92418293316084"  />
<line style="stroke:#e2e2e2; stroke-width:1; " y2="159.61764632606628" x1="83.92418293316084" y1="161.3193984672022" x2="74.2730669536412"  />
<line style="stroke:#e2e2e2; stroke-width:1; " y2="153.81216292463623" x1="83.92418293316084" y1="161.3193984672022" x2="77.62486435823276"  />
<line style="stroke:#cbcbcb; stroke-width:1; " y2="152.87730014811277" x1="100.55187068582205" y1="170.9193984672022" x2="93.98508393396921"  />
<line style="stroke:#e2e2e2; stroke-width:1; " y2="145.3700646055468" x1="93.98508393396921" y1="152.87730014811277" x2="87.68576535904113"  />
<line style="stroke:#e2e2e2; stroke-width:1; " y2="143.07730014811278" x1="93.98508393396921" y1="152.87730014811277" x2="93.98508393396921"  />
<line style="stroke:#b4b4b4; stroke-width:1; " y2="164.22826954040497" x1="118.93559632285707" y1="192.82826954040496" x2="118.93559632285707"  />
<line style="stroke:#cbcbcb; stroke-width:1; " y2="146.18617122131553" x1="118.93559632285707" y1="164.22826954040497" x2="112.36880957100422"  />
<line style="stroke:#e2e2e2; stroke-width:1; " y2="138.67893567874955" x1="112.36880957100422" y1="146.18617122131553" x2="106.06949099607614"  />
<line style="stroke:#e2e2e2; stroke-width:1; " y2="136.38617122131555" x1="112.36880957100422" y1="146.18617122131553" x2="112.36880957100422"  />
<line style="stroke:#cbcbcb; stroke-width:1; " y2="146.18617122131553" x1="118.93559632285707" y1="164.22826954040497" x2="125.50238307470991"  />
<line style="stroke:#e2e2e2; stroke-width:1; " y2="136.38617122131555" x1="125.50238307470991" y1="146.18617122131553" x2="125.50238307470991"  />
<line style="stroke:#e2e2e2; stroke-width:1; " y2="138.67893567874955" x1="125.50238307470991" y1="146.18617122131553" x2="131.801701649638"  />
<line style="stroke:#6e6e6e; stroke-width:1; " y2="239.8725548734694" x1="211.59073740333054" y1="293.247095734109" x2="192.16399326243254"  />
<line style="stroke:#858585; stroke-width:1; " y2="203.56204826962986" x1="192.16399326243254" y1="239.8725548734694" x2="161.69586056329058"  />
<line style="stroke:#9c9c9c; stroke-width:1; " y2="184.56204826962986" x1="161.69586056329058" y1="203.56204826962986" x2="128.78689521948192"  />
<line style="stroke:#b4b4b4; stroke-width:1; " y2="179.59571038835566" x1="128.78689521948192" y1="184.56204826962986" x2="100.62139348333278"  />
<line style="stroke:#cbcbcb; stroke-width:1; " y2="182.92975539956072" x1="100.62139348333278" y1="179.59571038835566" x2="81.7130846254984"  />
<line style="stroke:#e2e2e2; stroke-width:1; " y2="187.82975539956072" x1="81.7130846254984" y1="182.92975539956072" x2="73.2260356684109"  />
<line style="stroke:#e2e2e2; stroke-width:1; " y2="181.2280032584248" x1="81.7130846254984" y1="182.92975539956072" x2="72.06196864597877"  />
<line style="stroke:#cbcbcb; stroke-width:1; " y2="169.99571038835566" x1="100.62139348333278" y1="179.59571038835566" x2="83.99370573067156"  />
<line style="stroke:#e2e2e2; stroke-width:1; " y2="168.29395824721973" x1="83.99370573067156" y1="169.99571038835566" x2="74.34258975115193"  />
<line style="stroke:#e2e2e2; stroke-width:1; " y2="162.48847484578968" x1="83.99370573067156" y1="169.99571038835566" x2="77.69438715574348"  />
<line style="stroke:#b4b4b4; stroke-width:1; " y2="162.6531771964271" x1="128.78689521948192" y1="184.56204826962986" x2="110.4031695824469"  />
<line style="stroke:#cbcbcb; stroke-width:1; " y2="153.0531771964271" x1="110.4031695824469" y1="162.6531771964271" x2="93.77548182978569"  />
<line style="stroke:#e2e2e2; stroke-width:1; " y2="151.35142505529117" x1="93.77548182978569" y1="153.0531771964271" x2="84.12436585026606"  />
<line style="stroke:#e2e2e2; stroke-width:1; " y2="145.54594165386112" x1="93.77548182978569" y1="153.0531771964271" x2="87.47616325485761"  />
<line style="stroke:#cbcbcb; stroke-width:1; " y2="144.61107887733766" x1="110.4031695824469" y1="162.6531771964271" x2="103.83638283059406"  />
<line style="stroke:#e2e2e2; stroke-width:1; " y2="137.10384333477168" x1="103.83638283059406" y1="144.61107887733766" x2="97.53706425566598"  />
<line style="stroke:#e2e2e2; stroke-width:1; " y2="134.81107887733768" x1="103.83638283059406" y1="144.61107887733766" x2="103.83638283059406"  />
<line style="stroke:#9c9c9c; stroke-width:1; " y2="167.85372867976534" x1="161.69586056329058" y1="203.56204826962986" x2="148.69909511691517"  />
<line style="stroke:#b4b4b4; stroke-width:1; " y2="145.94485760656258" x1="148.69909511691517" y1="167.85372867976534" x2="130.31536947988016"  />
<line style="stroke:#cbcbcb; stroke-width:1; " y2="136.34485760656258" x1="130.31536947988016" y1="145.94485760656258" x2="113.68768172721894"  />
<line style="stroke:#e2e2e2; stroke-width:1; " y2="134.64310546542666" x1="113.68768172721894" y1="136.34485760656258" x2="104.03656574769931"  />
<line style="stroke:#e2e2e2; stroke-width:1; " y2="128.8376220639966" x1="113.68768172721894" y1="136.34485760656258" x2="107.38836315229086"  />
<line style="stroke:#cbcbcb; stroke-width:1; " y2="127.90275928747315" x1="130.31536947988016" y1="145.94485760656258" x2="123.74858272802732"  />
<line style="stroke:#e2e2e2; stroke-width:1; " y2="120.39552374490717" x1="123.74858272802732" y1="127.90275928747315" x2="117.44926415309924"  />
<line style="stroke:#e2e2e2; stroke-width:1; " y2="118.10275928747315" x1="123.74858272802732" y1="127.90275928747315" x2="123.74858272802732"  />
<line style="stroke:#b4b4b4; stroke-width:1; " y2="139.25372867976535" x1="148.69909511691517" y1="167.85372867976534" x2="148.69909511691517"  />
<line style="stroke:#cbcbcb; stroke-width:1; " y2="121.21163036067591" x1="148.69909511691517" y1="139.25372867976535" x2="142.13230836506233"  />
<line style="stroke:#e2e2e2; stroke-width:1; " y2="113.70439481810993" x1="142.13230836506233" y1="121.21163036067591" x2="135.83298979013423"  />
<line style="stroke:#e2e2e2; stroke-width:1; " y2="111.41163036067591" x1="142.13230836506233" y1="121.21163036067591" x2="142.13230836506233"  />
<line style="stroke:#cbcbcb; stroke-width:1; " y2="121.21163036067591" x1="148.69909511691517" y1="139.25372867976535" x2="155.26588186876802"  />
<line style="stroke:#e2e2e2; stroke-width:1; " y2="111.41163036067591" x1="155.26588186876802" y1="121.21163036067591" x2="155.26588186876802"  />
<line style="stroke:#e2e2e2; stroke-width:1; " y2="113.70439481810993" x1="155.26588186876802" y1="121.21163036067591" x2="161.5652004436961"  />
<line style="stroke:#858585; stroke-width:1; " y2="192.4725548734694" x1="192.16399326243254" y1="239.8725548734694" x2="192.16399326243254"  />
<line style="stroke:#9c9c9c; stroke-width:1; " y2="156.76423528360488" x1="192.16399326243254" y1="192.4725548734694" x2="179.16722781605714"  />
<line style="stroke:#b4b4b4; stroke-width:1; " y2="134.85536421040212" x1="179.16722781605714" y1="156.76423528360488" x2="160.78350217902212"  />
<line style="stroke:#cbcbcb; stroke-width:1; " y2="125.25536421040212" x1="160.78350217902212" y1="134.85536421040212" x2="144.1558144263609"  />
<line style="stroke:#e2e2e2; stroke-width:1; " y2="123.55361206926621" x1="144.1558144263609" y1="125.25536421040212" x2="134.50469844684127"  />
<line style="stroke:#e2e2e2; stroke-width:1; " y2="117.74812866783614" x1="144.1558144263609" y1="125.25536421040212" x2="137.8564958514328"  />
<line style="stroke:#cbcbcb; stroke-width:1; " y2="116.81326589131268" x1="160.78350217902212" y1="134.85536421040212" x2="154.21671542716928"  />
<line style="stroke:#e2e2e2; stroke-width:1; " y2="109.3060303487467" x1="154.21671542716928" y1="116.81326589131268" x2="147.91739685224118"  />
<line style="stroke:#e2e2e2; stroke-width:1; " y2="107.01326589131268" x1="154.21671542716928" y1="116.81326589131268" x2="154.21671542716928"  />
<line style="stroke:#b4b4b4; stroke-width:1; " y2="128.16423528360488" x1="179.16722781605714" y1="156.76423528360488" x2="179.16722781605714"  />
<line style="stroke:#cbcbcb; stroke-width:1; " y2="110.12213696451545" x1="179.16722781605714" y1="128.16423528360488" x2="172.6004410642043"  />
<line style="stroke:#e2e2e2; stroke-width:1; " y2="102.61490142194947" x1="172.6004410642043" y1="110.12213696451545" x2="166.3011224892762"  />
<line style="stroke:#e2e2e2; stroke-width:1; " y2="100.32213696451545" x1="172.6004410642043" y1="110.12213696451545" x2="172.6004410642043"  />
<line style="stroke:#cbcbcb; stroke-width:1; " y2="110.12213696451545" x1="179.16722781605714" y1="128.16423528360488" x2="185.73401456790998"  />
<line style="stroke:#e2e2e2; stroke-width:1; " y2="100.32213696451545" x1="185.73401456790998" y1="110.12213696451545" x2="185.73401456790998"  />
<line style="stroke:#e2e2e2; stroke-width:1; " y2="102.61490142194947" x1="185.73401456790998" y1="110.12213696451545" x2="192.03333314283807"  />
<line style="stroke:#9c9c9c; stroke-width:1; " y2="156.76423528360488" x1="192.16399326243254" y1="192.4725548734694" x2="205.16075870880795"  />
<line style="stroke:#b4b4b4; stroke-width:1; " y2="128.16423528360488" x1="205.16075870880795" y1="156.76423528360488" x2="205.16075870880795"  />
<line style="stroke:#cbcbcb; stroke-width:1; " y2="110.12213696451545" x1="205.16075870880795" y1="128.16423528360488" x2="198.5939719569551"  />
<line style="stroke:#e2e2e2; stroke-width:1; " y2="102.61490142194947" x1="198.5939719569551" y1="110.12213696451545" x2="192.294653382027"  />
<line style="stroke:#e2e2e2; stroke-width:1; " y2="100.32213696451545" x1="198.5939719569551" y1="110.12213696451545" x2="198.5939719569551"  />
<line style="stroke:#cbcbcb; stroke-width:1; " y2="110.12213696451545" x1="205.16075870880795" y1="128.16423528360488" x2="211.7275454606608"  />
<line style="stroke:#e2e2e2; stroke-width:1; " y2="100.32213696451545" x1="211.7275454606608" y1="110.12213696451545" x2="211.7275454606608"  />
<line style="stroke:#e2e2e2; stroke-width:1; " y2="102.61490142194947" x1="211.7275454606608" y1="110.12213696451545" x2="218.0268640355889"  />
<line style="stroke:#b4b4b4; stroke-width:1; " y2="134.85536421040212" x1="205.16075870880795" y1="156.76423528360488" x2="223.54448434584296"  />
<line style="stroke:#cbcbcb; stroke-width:1; " y2="116.81326589131268" x1="223.54448434584296" y1="134.85536421040212" x2="230.1112710976958"  />
<line style="stroke:#e2e2e2; stroke-width:1; " y2="107.01326589131268" x1="230.1112710976958" y1="116.81326589131268" x2="230.1112710976958"  />
<line style="stroke:#e2e2e2; stroke-width:1; " y2="109.3060303487467" x1="230.1112710976958" y1="116.81326589131268" x2="236.4105896726239"  />
<line style="stroke:#cbcbcb; stroke-width:1; " y2="125.25536421040212" x1="223.54448434584296" y1="134.85536421040212" x2="240.17217209850418"  />
<line style="stroke:#e2e2e2; stroke-width:1; " y2="117.74812866783614" x1="240.17217209850418" y1="125.25536421040212" x2="246.47149067343227"  />
<line style="stroke:#e2e2e2; stroke-width:1; " y2="123.55361206926621" x1="240.17217209850418" y1="125.25536421040212" x2="249.8232880780238"  />
<line style="stroke:#565656; stroke-width:1; " y2="277.75923786858533" x1="254.14327716457944" y1="343.9592378685853" x2="254.14327716457944"  />
<line style="stroke:#6e6e6e; stroke-width:1; " y2="224.38469700794573" x1="254.14327716457944" y1="277.75923786858533" x2="234.71653302368145"  />
<line style="stroke:#858585; stroke-width:1; " y2="188.0741904041062" x1="234.71653302368145" y1="224.38469700794573" x2="204.2484003245395"  />
<line style="stroke:#9c9c9c; stroke-width:1; " y2="169.0741904041062" x1="204.2484003245395" y1="188.0741904041062" x2="171.33943498073083"  />
<line style="stroke:#b4b4b4; stroke-width:1; " y2="164.107852522832" x1="171.33943498073083" y1="169.0741904041062" x2="143.1739332445817"  />
<line style="stroke:#cbcbcb; stroke-width:1; " y2="167.44189753403705" x1="143.1739332445817" y1="164.107852522832" x2="124.2656243867473"  />
<line style="stroke:#e2e2e2; stroke-width:1; " y2="172.34189753403706" x1="124.2656243867473" y1="167.44189753403705" x2="115.77857542965981"  />
<line style="stroke:#e2e2e2; stroke-width:1; " y2="165.74014539290113" x1="124.2656243867473" y1="167.44189753403705" x2="114.61450840722767"  />
<line style="stroke:#cbcbcb; stroke-width:1; " y2="154.507852522832" x1="143.1739332445817" y1="164.107852522832" x2="126.54624549192047"  />
<line style="stroke:#e2e2e2; stroke-width:1; " y2="152.80610038169607" x1="126.54624549192047" y1="154.507852522832" x2="116.89512951240084"  />
<line style="stroke:#e2e2e2; stroke-width:1; " y2="147.00061698026602" x1="126.54624549192047" y1="154.507852522832" x2="120.2469269169924"  />
<line style="stroke:#b4b4b4; stroke-width:1; " y2="147.16531933090343" x1="171.33943498073083" y1="169.0741904041062" x2="152.95570934369582"  />
<line style="stroke:#cbcbcb; stroke-width:1; " y2="137.56531933090344" x1="152.95570934369582" y1="147.16531933090343" x2="136.3280215910346"  />
<line style="stroke:#e2e2e2; stroke-width:1; " y2="135.8635671897675" x1="136.3280215910346" y1="137.56531933090344" x2="126.67690561151497"  />
<line style="stroke:#e2e2e2; stroke-width:1; " y2="130.05808378833746" x1="136.3280215910346" y1="137.56531933090344" x2="130.0287030161065"  />
<line style="stroke:#cbcbcb; stroke-width:1; " y2="129.123221011814" x1="152.95570934369582" y1="147.16531933090343" x2="146.38892259184297"  />
<line style="stroke:#e2e2e2; stroke-width:1; " y2="121.61598546924802" x1="146.38892259184297" y1="129.123221011814" x2="140.08960401691488"  />
<line style="stroke:#e2e2e2; stroke-width:1; " y2="119.323221011814" x1="146.38892259184297" y1="129.123221011814" x2="146.38892259184297"  />
<line style="stroke:#9c9c9c; stroke-width:1; " y2="152.36587081424167" x1="204.2484003245395" y1="188.0741904041062" x2="191.25163487816408"  />
<line style="stroke:#b4b4b4; stroke-width:1; " y2="130.4569997410389" x1="191.25163487816408" y1="152.36587081424167" x2="172.86790924112907"  />
<line style="stroke:#cbcbcb; stroke-width:1; " y2="120.85699974103892" x1="172.86790924112907" y1="130.4569997410389" x2="156.24022148846785"  />
<line style="stroke:#e2e2e2; stroke-width:1; " y2="119.155247599903" x1="156.24022148846785" y1="120.85699974103892" x2="146.58910550894822"  />
<line style="stroke:#e2e2e2; stroke-width:1; " y2="113.34976419847294" x1="156.24022148846785" y1="120.85699974103892" x2="149.94090291353976"  />
<line style="stroke:#cbcbcb; stroke-width:1; " y2="112.41490142194948" x1="172.86790924112907" y1="130.4569997410389" x2="166.30112248927622"  />
<line style="stroke:#e2e2e2; stroke-width:1; " y2="104.9076658793835" x1="166.30112248927622" y1="112.41490142194948" x2="160.00180391434813"  />
<line style="stroke:#e2e2e2; stroke-width:1; " y2="102.61490142194948" x1="166.30112248927622" y1="112.41490142194948" x2="166.30112248927622"  />
<line style="stroke:#b4b4b4; stroke-width:1; " y2="123.76587081424168" x1="191.25163487816408" y1="152.36587081424167" x2="191.25163487816408"  />
<line style="stroke:#cbcbcb; stroke-width:1; " y2="105.72377249515225" x1="191.25163487816408" y1="123.76587081424168" x2="184.68484812631124"  />
<line style="stroke:#e2e2e2; stroke-width:1; " y2="98.21653695258627" x1="184.68484812631124" y1="105.72377249515225" x2="178.38552955138314"  />
<line style="stroke:#e2e2e2; stroke-width:1; " y2="95.92377249515225" x1="184.68484812631124" y1="105.72377249515225" x2="184.68484812631124"  />
<line style="stroke:#cbcbcb; stroke-width:1; " y2="105.72377249515225" x1="191.25163487816408" y1="123.76587081424168" x2="197.81842163001693"  />
<line style="stroke:#e2e2e2; stroke-width:1; " y2="95.92377249515225" x1="197.81842163001693" y1="105.72377249515225" x2="197.81842163001693"  />
<line style="stroke:#e2e2e2; stroke-width:1; " y2="98.21653695258627" x1="197.81842163001693" y1="105.72377249515225" x2="204.11774020494502"  />
<line style="stroke:#858585; stroke-width:1; " y2="176.98469700794573" x1="234.71653302368145" y1="224.38469700794573" x2="234.71653302368145"  />
<line style="stroke:#9c9c9c; stroke-width:1; " y2="141.2763774180812" x1="234.71653302368145" y1="176.98469700794573" x2="221.71976757730604"  />
<line style="stroke:#b4b4b4; stroke-width:1; " y2="119.36750634487845" x1="221.71976757730604" y1="141.2763774180812" x2="203.33604194027103"  />
<line style="stroke:#cbcbcb; stroke-width:1; " y2="109.76750634487846" x1="203.33604194027103" y1="119.36750634487845" x2="186.7083541876098"  />
<line style="stroke:#e2e2e2; stroke-width:1; " y2="108.06575420374254" x1="186.7083541876098" y1="109.76750634487846" x2="177.05723820809018"  />
<line style="stroke:#e2e2e2; stroke-width:1; " y2="102.26027080231248" x1="186.7083541876098" y1="109.76750634487846" x2="180.40903561268172"  />
<line style="stroke:#cbcbcb; stroke-width:1; " y2="101.32540802578902" x1="203.33604194027103" y1="119.36750634487845" x2="196.76925518841819"  />
<line style="stroke:#e2e2e2; stroke-width:1; " y2="93.81817248322304" x1="196.76925518841819" y1="101.32540802578902" x2="190.4699366134901"  />
<line style="stroke:#e2e2e2; stroke-width:1; " y2="91.52540802578902" x1="196.76925518841819" y1="101.32540802578902" x2="196.76925518841819"  />
<line style="stroke:#b4b4b4; stroke-width:1; " y2="112.67637741808122" x1="221.71976757730604" y1="141.2763774180812" x2="221.71976757730604"  />
<line style="stroke:#cbcbcb; stroke-width:1; " y2="94.63427909899178" x1="221.71976757730604" y1="112.67637741808122" x2="215.1529808254532"  />
<line style="stroke:#e2e2e2; stroke-width:1; " y2="87.1270435564258" x1="215.1529808254532" y1="94.63427909899178" x2="208.8536622505251"  />
<line style="stroke:#e2e2e2; stroke-width:1; " y2="84.83427909899179" x1="215.1529808254532" y1="94.63427909899178" x2="215.1529808254532"  />
<line style="stroke:#cbcbcb; stroke-width:1; " y2="94.63427909899178" x1="221.71976757730604" y1="112.67637741808122" x2="228.2865543291589"  />
<line style="stroke:#e2e2e2; stroke-width:1; " y2="84.83427909899179" x1="228.2865543291589" y1="94.63427909899178" x2="228.2865543291589"  />
<line style="stroke:#e2e2e2; stroke-width:1; " y2="87.1270435564258" x1="228.2865543291589" y1="94.63427909899178" x2="234.58587290408698"  />
<line style="stroke:#9c9c9c; stroke-width:1; " y2="141.2763774180812" x1="234.71653302368145" y1="176.98469700794573" x2="247.71329847005686"  />
<line style="stroke:#b4b4b4; stroke-width:1; " y2="112.67637741808122" x1="247.71329847005686" y1="141.2763774180812" x2="247.71329847005686"  />
<line style="stroke:#cbcbcb; stroke-width:1; " y2="94.63427909899178" x1="247.71329847005686" y1="112.67637741808122" x2="241.146511718204"  />
<line style="stroke:#e2e2e2; stroke-width:1; " y2="87.1270435564258" x1="241.146511718204" y1="94.63427909899178" x2="234.84719314327592"  />
<line style="stroke:#e2e2e2; stroke-width:1; " y2="84.83427909899179" x1="241.146511718204" y1="94.63427909899178" x2="241.146511718204"  />
<line style="stroke:#cbcbcb; stroke-width:1; " y2="94.63427909899178" x1="247.71329847005686" y1="112.67637741808122" x2="254.2800852219097"  />
<line style="stroke:#e2e2e2; stroke-width:1; " y2="84.83427909899179" x1="254.2800852219097" y1="94.63427909899178" x2="254.2800852219097"  />
<line style="stroke:#e2e2e2; stroke-width:1; " y2="87.1270435564258" x1="254.2800852219097" y1="94.63427909899178" x2="260.57940379683777"  />
<line style="stroke:#b4b4b4; stroke-width:1; " y2="119.36750634487845" x1="247.71329847005686" y1="141.2763774180812" x2="266.0970241070919"  />
<line style="stroke:#cbcbcb; stroke-width:1; " y2="101.32540802578902" x1="266.0970241070919" y1="119.36750634487845" x2="272.6638108589447"  />
<line style="stroke:#e2e2e2; stroke-width:1; " y2="91.52540802578902" x1="272.6638108589447" y1="101.32540802578902" x2="272.6638108589447"  />
<line style="stroke:#e2e2e2; stroke-width:1; " y2="93.81817248322304" x1="272.6638108589447" y1="101.32540802578902" x2="278.9631294338728"  />
<line style="stroke:#cbcbcb; stroke-width:1; " y2="109.76750634487846" x1="266.0970241070919" y1="119.36750634487845" x2="282.72471185975314"  />
<line style="stroke:#e2e2e2; stroke-width:1; " y2="102.26027080231248" x1="282.72471185975314" y1="109.76750634487846" x2="289.0240304346812"  />
<line style="stroke:#e2e2e2; stroke-width:1; " y2="108.06575420374254" x1="282.72471185975314" y1="109.76750634487846" x2="292.3758278392728"  />
<line style="stroke:#6e6e6e; stroke-width:1; " y2="224.38469700794576" x1="254.14327716457944" y1="277.75923786858533" x2="273.57002130547744"  />
<line style="stroke:#858585; stroke-width:1; " y2="176.98469700794578" x1="273.57002130547744" y1="224.38469700794576" x2="273.57002130547744"  />
<line style="stroke:#9c9c9c; stroke-width:1; " y2="141.27637741808127" x1="273.57002130547744" y1="176.98469700794578" x2="260.573255859102"  />
<line style="stroke:#b4b4b4; stroke-width:1; " y2="119.3675063448785" x1="260.573255859102" y1="141.27637741808127" x2="242.189530222067"  />
<line style="stroke:#cbcbcb; stroke-width:1; " y2="109.76750634487851" x1="242.189530222067" y1="119.3675063448785" x2="225.56184246940578"  />
<line style="stroke:#e2e2e2; stroke-width:1; " y2="108.0657542037426" x1="225.56184246940578" y1="109.76750634487851" x2="215.91072648988614"  />
<line style="stroke:#e2e2e2; stroke-width:1; " y2="102.26027080231253" x1="225.56184246940578" y1="109.76750634487851" x2="219.26252389447768"  />
<line style="stroke:#cbcbcb; stroke-width:1; " y2="101.32540802578907" x1="242.189530222067" y1="119.3675063448785" x2="235.62274347021415"  />
<line style="stroke:#e2e2e2; stroke-width:1; " y2="93.8181724832231" x1="235.62274347021415" y1="101.32540802578907" x2="229.32342489528605"  />
<line style="stroke:#e2e2e2; stroke-width:1; " y2="91.52540802578908" x1="235.62274347021415" y1="101.32540802578907" x2="235.62274347021415"  />
<line style="stroke:#b4b4b4; stroke-width:1; " y2="112.67637741808127" x1="260.573255859102" y1="141.27637741808127" x2="260.573255859102"  />
<line style="stroke:#cbcbcb; stroke-width:1; " y2="94.63427909899184" x1="260.573255859102" y1="112.67637741808127" x2="254.00646910724916"  />
<line style="stroke:#e2e2e2; stroke-width:1; " y2="87.12704355642586" x1="254.00646910724916" y1="94.63427909899184" x2="247.70715053232107"  />
<line style="stroke:#e2e2e2; stroke-width:1; " y2="84.83427909899184" x1="254.00646910724916" y1="94.63427909899184" x2="254.00646910724916"  />
<line style="stroke:#cbcbcb; stroke-width:1; " y2="94.63427909899184" x1="260.573255859102" y1="112.67637741808127" x2="267.1400426109548"  />
<line style="stroke:#e2e2e2; stroke-width:1; " y2="84.83427909899184" x1="267.1400426109548" y1="94.63427909899184" x2="267.1400426109548"  />
<line style="stroke:#e2e2e2; stroke-width:1; " y2="87.12704355642586" x1="267.1400426109548" y1="94.63427909899184" x2="273.4393611858829"  />
<line style="stroke:#9c9c9c; stroke-width:1; " y2="141.27637741808127" x1="273.57002130547744" y1="176.98469700794578" x2="286.5667867518529"  />
<line style="stroke:#b4b4b4; stroke-width:1; " y2="112.67637741808127" x1="286.5667867518529" y1="141.27637741808127" x2="286.5667867518529"  />
<line style="stroke:#cbcbcb; stroke-width:1; " y2="94.63427909899184" x1="286.5667867518529" y1="112.67637741808127" x2="280.00000000000006"  />
<line style="stroke:#e2e2e2; stroke-width:1; " y2="87.12704355642586" x1="280.00000000000006" y1="94.63427909899184" x2="273.700681425072"  />
<line style="stroke:#e2e2e2; stroke-width:1; " y2="84.83427909899184" x1="280.00000000000006" y1="94.63427909899184" x2="280.00000000000006"  />
<line style="stroke:#cbcbcb; stroke-width:1; " y2="94.63427909899184" x1="286.5667867518529" y1="112.67637741808127" x2="293.1335735037057"  />
<line style="stroke:#e2e2e2; stroke-width:1; " y2="84.83427909899184" x1="293.1335735037057" y1="94.63427909899184" x2="293.1335735037057"  />
<line style="stroke:#e2e2e2; stroke-width:1; " y2="87.12704355642586" x1="293.1335735037057" y1="94.63427909899184" x2="299.43289207863376"  />
<line style="stroke:#b4b4b4; stroke-width:1; " y2="119.3675063448785" x1="286.5667867518529" y1="141.27637741808127" x2="304.9505123888879"  />
<line style="stroke:#cbcbcb; stroke-width:1; " y2="101.32540802578907" x1="304.9505123888879" y1="119.3675063448785" x2="311.5172991407407"  />
<line style="stroke:#e2e2e2; stroke-width:1; " y2="91.52540802578908" x1="311.5172991407407" y1="101.32540802578907" x2="311.5172991407407"  />
<line style="stroke:#e2e2e2; stroke-width:1; " y2="93.8181724832231" x1="311.5172991407407" y1="101.32540802578907" x2="317.81661771566877"  />
<line style="stroke:#cbcbcb; stroke-width:1; " y2="109.76750634487851" x1="304.9505123888879" y1="119.3675063448785" x2="321.57820014154913"  />
<line style="stroke:#e2e2e2; stroke-width:1; " y2="102.26027080231253" x1="321.57820014154913" y1="109.76750634487851" x2="327.8775187164772"  />
<line style="stroke:#e2e2e2; stroke-width:1; " y2="108.0657542037426" x1="321.57820014154913" y1="109.76750634487851" x2="331.2293161210688"  />
<line style="stroke:#858585; stroke-width:1; " y2="188.07419040410622" x1="273.57002130547744" y1="224.38469700794576" x2="304.0381540046194"  />
<line style="stroke:#9c9c9c; stroke-width:1; " y2="152.3658708142417" x1="304.0381540046194" y1="188.07419040410622" x2="317.03491945099483"  />
<line style="stroke:#b4b4b4; stroke-width:1; " y2="123.76587081424171" x1="317.03491945099483" y1="152.3658708142417" x2="317.03491945099483"  />
<line style="stroke:#cbcbcb; stroke-width:1; " y2="105.72377249515228" x1="317.03491945099483" y1="123.76587081424171" x2="310.468132699142"  />
<line style="stroke:#e2e2e2; stroke-width:1; " y2="98.2165369525863" x1="310.468132699142" y1="105.72377249515228" x2="304.16881412421395"  />
<line style="stroke:#e2e2e2; stroke-width:1; " y2="95.92377249515228" x1="310.468132699142" y1="105.72377249515228" x2="310.468132699142"  />
<line style="stroke:#cbcbcb; stroke-width:1; " y2="105.72377249515228" x1="317.03491945099483" y1="123.76587081424171" x2="323.60170620284765"  />
<line style="stroke:#e2e2e2; stroke-width:1; " y2="95.92377249515228" x1="323.60170620284765" y1="105.72377249515228" x2="323.60170620284765"  />
<line style="stroke:#e2e2e2; stroke-width:1; " y2="98.2165369525863" x1="323.60170620284765" y1="105.72377249515228" x2="329.9010247777757"  />
<line style="stroke:#b4b4b4; stroke-width:1; " y2="130.45699974103894" x1="317.03491945099483" y1="152.3658708142417" x2="335.41864508802985"  />
<line style="stroke:#cbcbcb; stroke-width:1; " y2="112.41490142194951" x1="335.41864508802985" y1="130.45699974103894" x2="341.98543183988266"  />
<line style="stroke:#e2e2e2; stroke-width:1; " y2="102.61490142194951" x1="341.98543183988266" y1="112.41490142194951" x2="341.98543183988266"  />
<line style="stroke:#e2e2e2; stroke-width:1; " y2="104.90766587938353" x1="341.98543183988266" y1="112.41490142194951" x2="348.28475041481073"  />
<line style="stroke:#cbcbcb; stroke-width:1; " y2="120.85699974103895" x1="335.41864508802985" y1="130.45699974103894" x2="352.0463328406911"  />
<line style="stroke:#e2e2e2; stroke-width:1; " y2="113.34976419847297" x1="352.0463328406911" y1="120.85699974103895" x2="358.34565141561916"  />
<line style="stroke:#e2e2e2; stroke-width:1; " y2="119.15524759990303" x1="352.0463328406911" y1="120.85699974103895" x2="361.69744882021075"  />
<line style="stroke:#9c9c9c; stroke-width:1; " y2="169.07419040410622" x1="304.0381540046194" y1="188.07419040410622" x2="336.9471193484281"  />
<line style="stroke:#b4b4b4; stroke-width:1; " y2="147.16531933090346" x1="336.9471193484281" y1="169.07419040410622" x2="355.3308449854631"  />
<line style="stroke:#cbcbcb; stroke-width:1; " y2="129.12322101181402" x1="355.3308449854631" y1="147.16531933090346" x2="361.8976317373159"  />
<line style="stroke:#e2e2e2; stroke-width:1; " y2="119.32322101181403" x1="361.8976317373159" y1="129.12322101181402" x2="361.8976317373159"  />
<line style="stroke:#e2e2e2; stroke-width:1; " y2="121.61598546924805" x1="361.8976317373159" y1="129.12322101181402" x2="368.196950312244"  />
<line style="stroke:#cbcbcb; stroke-width:1; " y2="137.56531933090346" x1="355.3308449854631" y1="147.16531933090346" x2="371.95853273812435"  />
<line style="stroke:#e2e2e2; stroke-width:1; " y2="130.05808378833748" x1="371.95853273812435" y1="137.56531933090346" x2="378.2578513130524"  />
<line style="stroke:#e2e2e2; stroke-width:1; " y2="135.86356718976754" x1="371.95853273812435" y1="137.56531933090346" x2="381.609648717644"  />
<line style="stroke:#b4b4b4; stroke-width:1; " y2="164.10785252283202" x1="336.9471193484281" y1="169.07419040410622" x2="365.11262108457726"  />
<line style="stroke:#cbcbcb; stroke-width:1; " y2="154.50785252283202" x1="365.11262108457726" y1="164.10785252283202" x2="381.7403088372385"  />
<line style="stroke:#e2e2e2; stroke-width:1; " y2="147.00061698026605" x1="381.7403088372385" y1="154.50785252283202" x2="388.03962741216657"  />
<line style="stroke:#e2e2e2; stroke-width:1; " y2="152.8061003816961" x1="381.7403088372385" y1="154.50785252283202" x2="391.39142481675816"  />
<line style="stroke:#cbcbcb; stroke-width:1; " y2="167.44189753403708" x1="365.11262108457726" y1="164.10785252283202" x2="384.02092994241167"  />
<line style="stroke:#e2e2e2; stroke-width:1; " y2="165.74014539290116" x1="384.02092994241167" y1="167.44189753403708" x2="393.6720459219313"  />
<line style="stroke:#e2e2e2; stroke-width:1; " y2="172.3418975340371" x1="384.02092994241167" y1="167.44189753403708" x2="392.50797889949916"  />
<line style="stroke:#3f3f3f; stroke-width:1; " y2="343.9592378685853" x1="280.0" y1="415.0" x2="305.85672283542056"  />
<line style="stroke:#565656; stroke-width:1; " y2="277.75923786858533" x1="305.85672283542056" y1="343.9592378685853" x2="305.85672283542056"  />
<line style="stroke:#6e6e6e; stroke-width:1; " y2="224.38469700794573" x1="305.85672283542056" y1="277.75923786858533" x2="286.42997869452256"  />
<line style="stroke:#858585; stroke-width:1; " y2="188.0741904041062" x1="286.42997869452256" y1="224.38469700794573" x2="255.9618459953806"  />
<line style="stroke:#9c9c9c; stroke-width:1; " y2="169.0741904041062" x1="255.9618459953806" y1="188.0741904041062" x2="223.05288065157194"  />
<line style="stroke:#b4b4b4; stroke-width:1; " y2="164.107852522832" x1="223.05288065157194" y1="169.0741904041062" x2="194.8873789154228"  />
<line style="stroke:#cbcbcb; stroke-width:1; " y2="167.44189753403705" x1="194.8873789154228" y1="164.107852522832" x2="175.97907005758842"  />
<line style="stroke:#e2e2e2; stroke-width:1; " y2="172.34189753403706" x1="175.97907005758842" y1="167.44189753403705" x2="167.49202110050092"  />
<line style="stroke:#e2e2e2; stroke-width:1; " y2="165.74014539290113" x1="175.97907005758842" y1="167.44189753403705" x2="166.32795407806879"  />
<line style="stroke:#cbcbcb; stroke-width:1; " y2="154.507852522832" x1="194.8873789154228" y1="164.107852522832" x2="178.25969116276158"  />
<line style="stroke:#e2e2e2; stroke-width:1; " y2="152.80610038169607" x1="178.25969116276158" y1="154.507852522832" x2="168.60857518324195"  />
<line style="stroke:#e2e2e2; stroke-width:1; " y2="147.00061698026602" x1="178.25969116276158" y1="154.507852522832" x2="171.9603725878335"  />
<line style="stroke:#b4b4b4; stroke-width:1; " y2="147.16531933090343" x1="223.05288065157194" y1="169.0741904041062" x2="204.66915501453693"  />
<line style="stroke:#cbcbcb; stroke-width:1; " y2="137.56531933090344" x1="204.66915501453693" y1="147.16531933090343" x2="188.0414672618757"  />
<line style="stroke:#e2e2e2; stroke-width:1; " y2="135.8635671897675" x1="188.0414672618757" y1="137.56531933090344" x2="178.39035128235608"  />
<line style="stroke:#e2e2e2; stroke-width:1; " y2="130.05808378833746" x1="188.0414672618757" y1="137.56531933090344" x2="181.74214868694762"  />
<line style="stroke:#cbcbcb; stroke-width:1; " y2="129.123221011814" x1="204.66915501453693" y1="147.16531933090343" x2="198.10236826268408"  />
<line style="stroke:#e2e2e2; stroke-width:1; " y2="121.61598546924802" x1="198.10236826268408" y1="129.123221011814" x2="191.803049687756"  />
<line style="stroke:#e2e2e2; stroke-width:1; " y2="119.323221011814" x1="198.10236826268408" y1="129.123221011814" x2="198.10236826268408"  />
<line style="stroke:#9c9c9c; stroke-width:1; " y2="152.36587081424167" x1="255.9618459953806" y1="188.0741904041062" x2="242.9650805490052"  />
<line style="stroke:#b4b4b4; stroke-width:1; " y2="130.4569997410389" x1="242.9650805490052" y1="152.36587081424167" x2="224.58135491197018"  />
<line style="stroke:#cbcbcb; stroke-width:1; " y2="120.85699974103892" x1="224.58135491197018" y1="130.4569997410389" x2="207.95366715930896"  />
<line style="stroke:#e2e2e2; stroke-width:1; " y2="119.155247599903" x1="207.95366715930896" y1="120.85699974103892" x2="198.30255117978933"  />
<line style="stroke:#e2e2e2; stroke-width:1; " y2="113.34976419847294" x1="207.95366715930896" y1="120.85699974103892" x2="201.65434858438087"  />
<line style="stroke:#cbcbcb; stroke-width:1; " y2="112.41490142194948" x1="224.58135491197018" y1="130.4569997410389" x2="218.01456816011734"  />
<line style="stroke:#e2e2e2; stroke-width:1; " y2="104.9076658793835" x1="218.01456816011734" y1="112.41490142194948" x2="211.71524958518924"  />
<line style="stroke:#e2e2e2; stroke-width:1; " y2="102.61490142194948" x1="218.01456816011734" y1="112.41490142194948" x2="218.01456816011734"  />
<line style="stroke:#b4b4b4; stroke-width:1; " y2="123.76587081424168" x1="242.9650805490052" y1="152.36587081424167" x2="242.9650805490052"  />
<line style="stroke:#cbcbcb; stroke-width:1; " y2="105.72377249515225" x1="242.9650805490052" y1="123.76587081424168" x2="236.39829379715235"  />
<line style="stroke:#e2e2e2; stroke-width:1; " y2="98.21653695258627" x1="236.39829379715235" y1="105.72377249515225" x2="230.09897522222425"  />
<line style="stroke:#e2e2e2; stroke-width:1; " y2="95.92377249515225" x1="236.39829379715235" y1="105.72377249515225" x2="236.39829379715235"  />
<line style="stroke:#cbcbcb; stroke-width:1; " y2="105.72377249515225" x1="242.9650805490052" y1="123.76587081424168" x2="249.53186730085804"  />
<line style="stroke:#e2e2e2; stroke-width:1; " y2="95.92377249515225" x1="249.53186730085804" y1="105.72377249515225" x2="249.53186730085804"  />
<line style="stroke:#e2e2e2; stroke-width:1; " y2="98.21653695258627" x1="249.53186730085804" y1="105.72377249515225" x2="255.83118587578613"  />
<line style="stroke:#858585; stroke-width:1; " y2="176.98469700794573" x1="286.42997869452256" y1="224.38469700794573" x2="286.42997869452256"  />
<line style="stroke:#9c9c9c; stroke-width:1; " y2="141.2763774180812" x1="286.42997869452256" y1="176.98469700794573" x2="273.4332132481471"  />
<line style="stroke:#b4b4b4; stroke-width:1; " y2="119.36750634487845" x1="273.4332132481471" y1="141.2763774180812" x2="255.0494876111121"  />
<line style="stroke:#cbcbcb; stroke-width:1; " y2="109.76750634487846" x1="255.0494876111121" y1="119.36750634487845" x2="238.4217998584509"  />
<line style="stroke:#e2e2e2; stroke-width:1; " y2="108.06575420374254" x1="238.4217998584509" y1="109.76750634487846" x2="228.77068387893127"  />
<line style="stroke:#e2e2e2; stroke-width:1; " y2="102.26027080231248" x1="238.4217998584509" y1="109.76750634487846" x2="232.1224812835228"  />
<line style="stroke:#cbcbcb; stroke-width:1; " y2="101.32540802578902" x1="255.0494876111121" y1="119.36750634487845" x2="248.48270085925927"  />
<line style="stroke:#e2e2e2; stroke-width:1; " y2="93.81817248322304" x1="248.48270085925927" y1="101.32540802578902" x2="242.18338228433117"  />
<line style="stroke:#e2e2e2; stroke-width:1; " y2="91.52540802578902" x1="248.48270085925927" y1="101.32540802578902" x2="248.48270085925927"  />
<line style="stroke:#b4b4b4; stroke-width:1; " y2="112.67637741808122" x1="273.4332132481471" y1="141.2763774180812" x2="273.4332132481471"  />
<line style="stroke:#cbcbcb; stroke-width:1; " y2="94.63427909899178" x1="273.4332132481471" y1="112.67637741808122" x2="266.8664264962943"  />
<line style="stroke:#e2e2e2; stroke-width:1; " y2="87.1270435564258" x1="266.8664264962943" y1="94.63427909899178" x2="260.56710792136624"  />
<line style="stroke:#e2e2e2; stroke-width:1; " y2="84.83427909899179" x1="266.8664264962943" y1="94.63427909899178" x2="266.8664264962943"  />
<line style="stroke:#cbcbcb; stroke-width:1; " y2="94.63427909899178" x1="273.4332132481471" y1="112.67637741808122" x2="279.99999999999994"  />
<line style="stroke:#e2e2e2; stroke-width:1; " y2="84.83427909899179" x1="279.99999999999994" y1="94.63427909899178" x2="279.99999999999994"  />
<line style="stroke:#e2e2e2; stroke-width:1; " y2="87.1270435564258" x1="279.99999999999994" y1="94.63427909899178" x2="286.299318574928"  />
<line style="stroke:#9c9c9c; stroke-width:1; " y2="141.2763774180812" x1="286.42997869452256" y1="176.98469700794573" x2="299.426744140898"  />
<line style="stroke:#b4b4b4; stroke-width:1; " y2="112.67637741808122" x1="299.426744140898" y1="141.2763774180812" x2="299.426744140898"  />
<line style="stroke:#cbcbcb; stroke-width:1; " y2="94.63427909899178" x1="299.426744140898" y1="112.67637741808122" x2="292.8599573890452"  />
<line style="stroke:#e2e2e2; stroke-width:1; " y2="87.1270435564258" x1="292.8599573890452" y1="94.63427909899178" x2="286.5606388141171"  />
<line style="stroke:#e2e2e2; stroke-width:1; " y2="84.83427909899179" x1="292.8599573890452" y1="94.63427909899178" x2="292.8599573890452"  />
<line style="stroke:#cbcbcb; stroke-width:1; " y2="94.63427909899178" x1="299.426744140898" y1="112.67637741808122" x2="305.9935308927508"  />
<line style="stroke:#e2e2e2; stroke-width:1; " y2="84.83427909899179" x1="305.9935308927508" y1="94.63427909899178" x2="305.9935308927508"  />
<line style="stroke:#e2e2e2; stroke-width:1; " y2="87.1270435564258" x1="305.9935308927508" y1="94.63427909899178" x2="312.2928494676789"  />
<line style="stroke:#b4b4b4; stroke-width:1; " y2="119.36750634487845" x1="299.426744140898" y1="141.2763774180812" x2="317.810469777933"  />
<line style="stroke:#cbcbcb; stroke-width:1; " y2="101.32540802578902" x1="317.810469777933" y1="119.36750634487845" x2="324.3772565297858"  />
<line style="stroke:#e2e2e2; stroke-width:1; " y2="91.52540802578902" x1="324.3772565297858" y1="101.32540802578902" x2="324.3772565297858"  />
<line style="stroke:#e2e2e2; stroke-width:1; " y2="93.81817248322304" x1="324.3772565297858" y1="101.32540802578902" x2="330.6765751047139"  />
<line style="stroke:#cbcbcb; stroke-width:1; " y2="109.76750634487846" x1="317.810469777933" y1="119.36750634487845" x2="334.43815753059425"  />
<line style="stroke:#e2e2e2; stroke-width:1; " y2="102.26027080231248" x1="334.43815753059425" y1="109.76750634487846" x2="340.7374761055223"  />
<line style="stroke:#e2e2e2; stroke-width:1; " y2="108.06575420374254" x1="334.43815753059425" y1="109.76750634487846" x2="344.0892735101139"  />
<line style="stroke:#6e6e6e; stroke-width:1; " y2="224.38469700794576" x1="305.85672283542056" y1="277.75923786858533" x2="325.28346697631855"  />
<line style="stroke:#858585; stroke-width:1; " y2="176.98469700794578" x1="325.28346697631855" y1="224.38469700794576" x2="325.28346697631855"  />
<line style="stroke:#9c9c9c; stroke-width:1; " y2="141.27637741808127" x1="325.28346697631855" y1="176.98469700794578" x2="312.2867015299431"  />
<line style="stroke:#b4b4b4; stroke-width:1; " y2="119.3675063448785" x1="312.2867015299431" y1="141.27637741808127" x2="293.9029758929081"  />
<line style="stroke:#cbcbcb; stroke-width:1; " y2="109.76750634487851" x1="293.9029758929081" y1="119.3675063448785" x2="277.27528814024686"  />
<line style="stroke:#e2e2e2; stroke-width:1; " y2="108.0657542037426" x1="277.27528814024686" y1="109.76750634487851" x2="267.6241721607272"  />
<line style="stroke:#e2e2e2; stroke-width:1; " y2="102.26027080231253" x1="277.27528814024686" y1="109.76750634487851" x2="270.9759695653188"  />
<line style="stroke:#cbcbcb; stroke-width:1; " y2="101.32540802578907" x1="293.9029758929081" y1="119.3675063448785" x2="287.3361891410553"  />
<line style="stroke:#e2e2e2; stroke-width:1; " y2="93.8181724832231" x1="287.3361891410553" y1="101.32540802578907" x2="281.0368705661272"  />
<line style="stroke:#e2e2e2; stroke-width:1; " y2="91.52540802578908" x1="287.3361891410553" y1="101.32540802578907" x2="287.3361891410553"  />
<line style="stroke:#b4b4b4; stroke-width:1; " y2="112.67637741808127" x1="312.2867015299431" y1="141.27637741808127" x2="312.2867015299431"  />
<line style="stroke:#cbcbcb; stroke-width:1; " y2="94.63427909899184" x1="312.2867015299431" y1="112.67637741808127" x2="305.7199147780903"  />
<line style="stroke:#e2e2e2; stroke-width:1; " y2="87.12704355642586" x1="305.7199147780903" y1="94.63427909899184" x2="299.42059620316223"  />
<line style="stroke:#e2e2e2; stroke-width:1; " y2="84.83427909899184" x1="305.7199147780903" y1="94.63427909899184" x2="305.7199147780903"  />
<line style="stroke:#cbcbcb; stroke-width:1; " y2="94.63427909899184" x1="312.2867015299431" y1="112.67637741808127" x2="318.85348828179593"  />
<line style="stroke:#e2e2e2; stroke-width:1; " y2="84.83427909899184" x1="318.85348828179593" y1="94.63427909899184" x2="318.85348828179593"  />
<line style="stroke:#e2e2e2; stroke-width:1; " y2="87.12704355642586" x1="318.85348828179593" y1="94.63427909899184" x2="325.152806856724"  />
<line style="stroke:#9c9c9c; stroke-width:1; " y2="141.27637741808127" x1="325.28346697631855" y1="176.98469700794578" x2="338.280232422694"  />
<line style="stroke:#b4b4b4; stroke-width:1; " y2="112.67637741808127" x1="338.280232422694" y1="141.27637741808127" x2="338.280232422694"  />
<line style="stroke:#cbcbcb; stroke-width:1; " y2="94.63427909899184" x1="338.280232422694" y1="112.67637741808127" x2="331.71344567084117"  />
<line style="stroke:#e2e2e2; stroke-width:1; " y2="87.12704355642586" x1="331.71344567084117" y1="94.63427909899184" x2="325.4141270959131"  />
<line style="stroke:#e2e2e2; stroke-width:1; " y2="84.83427909899184" x1="331.71344567084117" y1="94.63427909899184" x2="331.71344567084117"  />
<line style="stroke:#cbcbcb; stroke-width:1; " y2="94.63427909899184" x1="338.280232422694" y1="112.67637741808127" x2="344.8470191745468"  />
<line style="stroke:#e2e2e2; stroke-width:1; " y2="84.83427909899184" x1="344.8470191745468" y1="94.63427909899184" x2="344.8470191745468"  />
<line style="stroke:#e2e2e2; stroke-width:1; " y2="87.12704355642586" x1="344.8470191745468" y1="94.63427909899184" x2="351.14633774947487"  />
<line style="stroke:#b4b4b4; stroke-width:1; " y2="119.3675063448785" x1="338.280232422694" y1="141.27637741808127" x2="356.663958059729"  />
<line style="stroke:#cbcbcb; stroke-width:1; " y2="101.32540802578907" x1="356.663958059729" y1="119.3675063448785" x2="363.2307448115818"  />
<line style="stroke:#e2e2e2; stroke-width:1; " y2="91.52540802578908" x1="363.2307448115818" y1="101.32540802578907" x2="363.2307448115818"  />
<line style="stroke:#e2e2e2; stroke-width:1; " y2="93.8181724832231" x1="363.2307448115818" y1="101.32540802578907" x2="369.5300633865099"  />
<line style="stroke:#cbcbcb; stroke-width:1; " y2="109.76750634487851" x1="356.663958059729" y1="119.3675063448785" x2="373.29164581239024"  />
<line style="stroke:#e2e2e2; stroke-width:1; " y2="102.26027080231253" x1="373.29164581239024" y1="109.76750634487851" x2="379.5909643873183"  />
<line style="stroke:#e2e2e2; stroke-width:1; " y2="108.0657542037426" x1="373.29164581239024" y1="109.76750634487851" x2="382.9427617919099"  />
<line style="stroke:#858585; stroke-width:1; " y2="188.07419040410622" x1="325.28346697631855" y1="224.38469700794576" x2="355.7515996754605"  />
<line style="stroke:#9c9c9c; stroke-width:1; " y2="152.3658708142417" x1="355.7515996754605" y1="188.07419040410622" x2="368.74836512183595"  />
<line style="stroke:#b4b4b4; stroke-width:1; " y2="123.76587081424171" x1="368.74836512183595" y1="152.3658708142417" x2="368.74836512183595"  />
<line style="stroke:#cbcbcb; stroke-width:1; " y2="105.72377249515228" x1="368.74836512183595" y1="123.76587081424171" x2="362.18157836998313"  />
<line style="stroke:#e2e2e2; stroke-width:1; " y2="98.2165369525863" x1="362.18157836998313" y1="105.72377249515228" x2="355.88225979505506"  />
<line style="stroke:#e2e2e2; stroke-width:1; " y2="95.92377249515228" x1="362.18157836998313" y1="105.72377249515228" x2="362.18157836998313"  />
<line style="stroke:#cbcbcb; stroke-width:1; " y2="105.72377249515228" x1="368.74836512183595" y1="123.76587081424171" x2="375.31515187368876"  />
<line style="stroke:#e2e2e2; stroke-width:1; " y2="95.92377249515228" x1="375.31515187368876" y1="105.72377249515228" x2="375.31515187368876"  />
<line style="stroke:#e2e2e2; stroke-width:1; " y2="98.2165369525863" x1="375.31515187368876" y1="105.72377249515228" x2="381.6144704486168"  />
<line style="stroke:#b4b4b4; stroke-width:1; " y2="130.45699974103894" x1="368.74836512183595" y1="152.3658708142417" x2="387.13209075887096"  />
<line style="stroke:#cbcbcb; stroke-width:1; " y2="112.41490142194951" x1="387.13209075887096" y1="130.45699974103894" x2="393.6988775107238"  />
<line style="stroke:#e2e2e2; stroke-width:1; " y2="102.61490142194951" x1="393.6988775107238" y1="112.41490142194951" x2="393.6988775107238"  />
<line style="stroke:#e2e2e2; stroke-width:1; " y2="104.90766587938353" x1="393.6988775107238" y1="112.41490142194951" x2="399.99819608565184"  />
<line style="stroke:#cbcbcb; stroke-width:1; " y2="120.85699974103895" x1="387.13209075887096" y1="130.45699974103894" x2="403.7597785115322"  />
<line style="stroke:#e2e2e2; stroke-width:1; " y2="113.34976419847297" x1="403.7597785115322" y1="120.85699974103895" x2="410.05909708646027"  />
<line style="stroke:#e2e2e2; stroke-width:1; " y2="119.15524759990303" x1="403.7597785115322" y1="120.85699974103895" x2="413.41089449105186"  />
<line style="stroke:#9c9c9c; stroke-width:1; " y2="169.07419040410622" x1="355.7515996754605" y1="188.07419040410622" x2="388.6605650192692"  />
<line style="stroke:#b4b4b4; stroke-width:1; " y2="147.16531933090346" x1="388.6605650192692" y1="169.07419040410622" x2="407.0442906563042"  />
<line style="stroke:#cbcbcb; stroke-width:1; " y2="129.12322101181402" x1="407.0442906563042" y1="147.16531933090346" x2="413.61107740815703"  />
<line style="stroke:#e2e2e2; stroke-width:1; " y2="119.32322101181403" x1="413.61107740815703" y1="129.12322101181402" x2="413.61107740815703"  />
<line style="stroke:#e2e2e2; stroke-width:1; " y2="121.61598546924805" x1="413.61107740815703" y1="129.12322101181402" x2="419.9103959830851"  />
<line style="stroke:#cbcbcb; stroke-width:1; " y2="137.56531933090346" x1="407.0442906563042" y1="147.16531933090346" x2="423.67197840896546"  />
<line style="stroke:#e2e2e2; stroke-width:1; " y2="130.05808378833748" x1="423.67197840896546" y1="137.56531933090346" x2="429.9712969838935"  />
<line style="stroke:#e2e2e2; stroke-width:1; " y2="135.86356718976754" x1="423.67197840896546" y1="137.56531933090346" x2="433.3230943884851"  />
<line style="stroke:#b4b4b4; stroke-width:1; " y2="164.10785252283202" x1="388.6605650192692" y1="169.07419040410622" x2="416.82606675541837"  />
<line style="stroke:#cbcbcb; stroke-width:1; " y2="154.50785252283202" x1="416.82606675541837" y1="164.10785252283202" x2="433.4537545080796"  />
<line style="stroke:#e2e2e2; stroke-width:1; " y2="147.00061698026605" x1="433.4537545080796" y1="154.50785252283202" x2="439.7530730830077"  />
<line style="stroke:#e2e2e2; stroke-width:1; " y2="152.8061003816961" x1="433.4537545080796" y1="154.50785252283202" x2="443.10487048759927"  />
<line style="stroke:#cbcbcb; stroke-width:1; " y2="167.44189753403708" x1="416.82606675541837" y1="164.10785252283202" x2="435.7343756132528"  />
<line style="stroke:#e2e2e2; stroke-width:1; " y2="165.74014539290116" x1="435.7343756132528" y1="167.44189753403708" x2="445.38549159277244"  />
<line style="stroke:#e2e2e2; stroke-width:1; " y2="172.3418975340371" x1="435.7343756132528" y1="167.44189753403708" x2="444.2214245703403"  />
<line style="stroke:#565656; stroke-width:1; " y2="293.247095734109" x1="305.85672283542056" y1="343.9592378685853" x2="348.40926259666946"  />
<line style="stroke:#6e6e6e; stroke-width:1; " y2="239.87255487346943" x1="348.40926259666946" y1="293.247095734109" x2="367.83600673756746"  />
<line style="stroke:#858585; stroke-width:1; " y2="192.47255487346945" x1="367.83600673756746" y1="239.87255487346943" x2="367.83600673756746"  />
<line style="stroke:#9c9c9c; stroke-width:1; " y2="156.76423528360493" x1="367.83600673756746" y1="192.47255487346945" x2="354.839241291192"  />
<line style="stroke:#b4b4b4; stroke-width:1; " y2="134.85536421040217" x1="354.839241291192" y1="156.76423528360493" x2="336.455515654157"  />
<line style="stroke:#cbcbcb; stroke-width:1; " y2="125.25536421040218" x1="336.455515654157" y1="134.85536421040217" x2="319.82782790149577"  />
<line style="stroke:#e2e2e2; stroke-width:1; " y2="123.55361206926626" x1="319.82782790149577" y1="125.25536421040218" x2="310.1767119219761"  />
<line style="stroke:#e2e2e2; stroke-width:1; " y2="117.7481286678362" x1="319.82782790149577" y1="125.25536421040218" x2="313.5285093265677"  />
<line style="stroke:#cbcbcb; stroke-width:1; " y2="116.81326589131274" x1="336.455515654157" y1="134.85536421040217" x2="329.8887289023042"  />
<line style="stroke:#e2e2e2; stroke-width:1; " y2="109.30603034874676" x1="329.8887289023042" y1="116.81326589131274" x2="323.58941032737613"  />
<line style="stroke:#e2e2e2; stroke-width:1; " y2="107.01326589131274" x1="329.8887289023042" y1="116.81326589131274" x2="329.8887289023042"  />
<line style="stroke:#b4b4b4; stroke-width:1; " y2="128.16423528360494" x1="354.839241291192" y1="156.76423528360493" x2="354.839241291192"  />
<line style="stroke:#cbcbcb; stroke-width:1; " y2="110.1221369645155" x1="354.839241291192" y1="128.16423528360494" x2="348.2724545393392"  />
<line style="stroke:#e2e2e2; stroke-width:1; " y2="102.61490142194953" x1="348.2724545393392" y1="110.1221369645155" x2="341.97313596441114"  />
<line style="stroke:#e2e2e2; stroke-width:1; " y2="100.32213696451551" x1="348.2724545393392" y1="110.1221369645155" x2="348.2724545393392"  />
<line style="stroke:#cbcbcb; stroke-width:1; " y2="110.1221369645155" x1="354.839241291192" y1="128.16423528360494" x2="361.40602804304484"  />
<line style="stroke:#e2e2e2; stroke-width:1; " y2="100.32213696451551" x1="361.40602804304484" y1="110.1221369645155" x2="361.40602804304484"  />
<line style="stroke:#e2e2e2; stroke-width:1; " y2="102.61490142194953" x1="361.40602804304484" y1="110.1221369645155" x2="367.7053466179729"  />
<line style="stroke:#9c9c9c; stroke-width:1; " y2="156.76423528360493" x1="367.83600673756746" y1="192.47255487346945" x2="380.8327721839429"  />
<line style="stroke:#b4b4b4; stroke-width:1; " y2="128.16423528360494" x1="380.8327721839429" y1="156.76423528360493" x2="380.8327721839429"  />
<line style="stroke:#cbcbcb; stroke-width:1; " y2="110.1221369645155" x1="380.8327721839429" y1="128.16423528360494" x2="374.2659854320901"  />
<line style="stroke:#e2e2e2; stroke-width:1; " y2="102.61490142194953" x1="374.2659854320901" y1="110.1221369645155" x2="367.966666857162"  />
<line style="stroke:#e2e2e2; stroke-width:1; " y2="100.32213696451551" x1="374.2659854320901" y1="110.1221369645155" x2="374.2659854320901"  />
<line style="stroke:#cbcbcb; stroke-width:1; " y2="110.1221369645155" x1="380.8327721839429" y1="128.16423528360494" x2="387.3995589357957"  />
<line style="stroke:#e2e2e2; stroke-width:1; " y2="100.32213696451551" x1="387.3995589357957" y1="110.1221369645155" x2="387.3995589357957"  />
<line style="stroke:#e2e2e2; stroke-width:1; " y2="102.61490142194953" x1="387.3995589357957" y1="110.1221369645155" x2="393.6988775107238"  />
<line style="stroke:#b4b4b4; stroke-width:1; " y2="134.85536421040217" x1="380.8327721839429" y1="156.76423528360493" x2="399.2164978209779"  />
<line style="stroke:#cbcbcb; stroke-width:1; " y2="116.81326589131274" x1="399.2164978209779" y1="134.85536421040217" x2="405.7832845728307"  />
<line style="stroke:#e2e2e2; stroke-width:1; " y2="107.01326589131274" x1="405.7832845728307" y1="116.81326589131274" x2="405.7832845728307"  />
<line style="stroke:#e2e2e2; stroke-width:1; " y2="109.30603034874676" x1="405.7832845728307" y1="116.81326589131274" x2="412.0826031477588"  />
<line style="stroke:#cbcbcb; stroke-width:1; " y2="125.25536421040218" x1="399.2164978209779" y1="134.85536421040217" x2="415.84418557363915"  />
<line style="stroke:#e2e2e2; stroke-width:1; " y2="117.7481286678362" x1="415.84418557363915" y1="125.25536421040218" x2="422.1435041485672"  />
<line style="stroke:#e2e2e2; stroke-width:1; " y2="123.55361206926626" x1="415.84418557363915" y1="125.25536421040218" x2="425.4953015531588"  />
<line style="stroke:#858585; stroke-width:1; " y2="203.56204826962988" x1="367.83600673756746" y1="239.87255487346943" x2="398.3041394367094"  />
<line style="stroke:#9c9c9c; stroke-width:1; " y2="167.85372867976537" x1="398.3041394367094" y1="203.56204826962988" x2="411.30090488308485"  />
<line style="stroke:#b4b4b4; stroke-width:1; " y2="139.25372867976537" x1="411.30090488308485" y1="167.85372867976537" x2="411.30090488308485"  />
<line style="stroke:#cbcbcb; stroke-width:1; " y2="121.21163036067594" x1="411.30090488308485" y1="139.25372867976537" x2="404.73411813123204"  />
<line style="stroke:#e2e2e2; stroke-width:1; " y2="113.70439481810996" x1="404.73411813123204" y1="121.21163036067594" x2="398.434799556304"  />
<line style="stroke:#e2e2e2; stroke-width:1; " y2="111.41163036067594" x1="404.73411813123204" y1="121.21163036067594" x2="404.73411813123204"  />
<line style="stroke:#cbcbcb; stroke-width:1; " y2="121.21163036067594" x1="411.30090488308485" y1="139.25372867976537" x2="417.86769163493767"  />
<line style="stroke:#e2e2e2; stroke-width:1; " y2="111.41163036067594" x1="417.86769163493767" y1="121.21163036067594" x2="417.86769163493767"  />
<line style="stroke:#e2e2e2; stroke-width:1; " y2="113.70439481810996" x1="417.86769163493767" y1="121.21163036067594" x2="424.16701020986574"  />
<line style="stroke:#b4b4b4; stroke-width:1; " y2="145.9448576065626" x1="411.30090488308485" y1="167.85372867976537" x2="429.68463052011987"  />
<line style="stroke:#cbcbcb; stroke-width:1; " y2="127.90275928747317" x1="429.68463052011987" y1="145.9448576065626" x2="436.2514172719727"  />
<line style="stroke:#e2e2e2; stroke-width:1; " y2="118.10275928747318" x1="436.2514172719727" y1="127.90275928747317" x2="436.2514172719727"  />
<line style="stroke:#e2e2e2; stroke-width:1; " y2="120.3955237449072" x1="436.2514172719727" y1="127.90275928747317" x2="442.55073584690075"  />
<line style="stroke:#cbcbcb; stroke-width:1; " y2="136.3448576065626" x1="429.68463052011987" y1="145.9448576065626" x2="446.3123182727811"  />
<line style="stroke:#e2e2e2; stroke-width:1; " y2="128.83762206399663" x1="446.3123182727811" y1="136.3448576065626" x2="452.6116368477092"  />
<line style="stroke:#e2e2e2; stroke-width:1; " y2="134.6431054654267" x1="446.3123182727811" y1="136.3448576065626" x2="455.9634342523008"  />
<line style="stroke:#9c9c9c; stroke-width:1; " y2="184.56204826962988" x1="398.3041394367094" y1="203.56204826962988" x2="431.2131047805181"  />
<line style="stroke:#b4b4b4; stroke-width:1; " y2="162.65317719642712" x1="431.2131047805181" y1="184.56204826962988" x2="449.5968304175531"  />
<line style="stroke:#cbcbcb; stroke-width:1; " y2="144.6110788773377" x1="449.5968304175531" y1="162.65317719642712" x2="456.16361716940594"  />
<line style="stroke:#e2e2e2; stroke-width:1; " y2="134.8110788773377" x1="456.16361716940594" y1="144.6110788773377" x2="456.16361716940594"  />
<line style="stroke:#e2e2e2; stroke-width:1; " y2="137.1038433347717" x1="456.16361716940594" y1="144.6110788773377" x2="462.462935744334"  />
<line style="stroke:#cbcbcb; stroke-width:1; " y2="153.05317719642713" x1="449.5968304175531" y1="162.65317719642712" x2="466.22451817021437"  />
<line style="stroke:#e2e2e2; stroke-width:1; " y2="145.54594165386115" x1="466.22451817021437" y1="153.05317719642713" x2="472.52383674514243"  />
<line style="stroke:#e2e2e2; stroke-width:1; " y2="151.3514250552912" x1="466.22451817021437" y1="153.05317719642713" x2="475.875634149734"  />
<line style="stroke:#b4b4b4; stroke-width:1; " y2="179.59571038835568" x1="431.2131047805181" y1="184.56204826962988" x2="459.3786065166673"  />
<line style="stroke:#cbcbcb; stroke-width:1; " y2="169.9957103883557" x1="459.3786065166673" y1="179.59571038835568" x2="476.0062942693285"  />
<line style="stroke:#e2e2e2; stroke-width:1; " y2="162.4884748457897" x1="476.0062942693285" y1="169.9957103883557" x2="482.3056128442566"  />
<line style="stroke:#e2e2e2; stroke-width:1; " y2="168.29395824721976" x1="476.0062942693285" y1="169.9957103883557" x2="485.6574102488482"  />
<line style="stroke:#cbcbcb; stroke-width:1; " y2="182.92975539956075" x1="459.3786065166673" y1="179.59571038835568" x2="478.2869153745017"  />
<line style="stroke:#e2e2e2; stroke-width:1; " y2="181.22800325842482" x1="478.2869153745017" y1="182.92975539956075" x2="487.93803135402135"  />
<line style="stroke:#e2e2e2; stroke-width:1; " y2="187.82975539956075" x1="478.2869153745017" y1="182.92975539956075" x2="486.7739643315892"  />
<line style="stroke:#6e6e6e; stroke-width:1; " y2="264.847095734109" x1="348.40926259666946" y1="293.247095734109" x2="397.5995055316256"  />
<line style="stroke:#858585; stroke-width:1; " y2="228.53658913026948" x1="397.5995055316256" y1="264.847095734109" x2="428.06763823076756"  />
<line style="stroke:#9c9c9c; stroke-width:1; " y2="192.82826954040496" x1="428.06763823076756" y1="228.53658913026948" x2="441.064403677143"  />
<line style="stroke:#b4b4b4; stroke-width:1; " y2="164.22826954040497" x1="441.064403677143" y1="192.82826954040496" x2="441.064403677143"  />
<line style="stroke:#cbcbcb; stroke-width:1; " y2="146.18617122131553" x1="441.064403677143" y1="164.22826954040497" x2="434.4976169252902"  />
<line style="stroke:#e2e2e2; stroke-width:1; " y2="138.67893567874955" x1="434.4976169252902" y1="146.18617122131553" x2="428.1982983503621"  />
<line style="stroke:#e2e2e2; stroke-width:1; " y2="136.38617122131555" x1="434.4976169252902" y1="146.18617122131553" x2="434.4976169252902"  />
<line style="stroke:#cbcbcb; stroke-width:1; " y2="146.18617122131553" x1="441.064403677143" y1="164.22826954040497" x2="447.6311904289958"  />
<line style="stroke:#e2e2e2; stroke-width:1; " y2="136.38617122131555" x1="447.6311904289958" y1="146.18617122131553" x2="447.6311904289958"  />
<line style="stroke:#e2e2e2; stroke-width:1; " y2="138.67893567874955" x1="447.6311904289958" y1="146.18617122131553" x2="453.9305090039239"  />
<line style="stroke:#b4b4b4; stroke-width:1; " y2="170.9193984672022" x1="441.064403677143" y1="192.82826954040496" x2="459.448129314178"  />
<line style="stroke:#cbcbcb; stroke-width:1; " y2="152.87730014811277" x1="459.448129314178" y1="170.9193984672022" x2="466.0149160660308"  />
<line style="stroke:#e2e2e2; stroke-width:1; " y2="143.07730014811278" x1="466.0149160660308" y1="152.87730014811277" x2="466.0149160660308"  />
<line style="stroke:#e2e2e2; stroke-width:1; " y2="145.3700646055468" x1="466.0149160660308" y1="152.87730014811277" x2="472.3142346409589"  />
<line style="stroke:#cbcbcb; stroke-width:1; " y2="161.3193984672022" x1="459.448129314178" y1="170.9193984672022" x2="476.07581706683925"  />
<line style="stroke:#e2e2e2; stroke-width:1; " y2="153.81216292463623" x1="476.07581706683925" y1="161.3193984672022" x2="482.3751356417673"  />
<line style="stroke:#e2e2e2; stroke-width:1; " y2="159.61764632606628" x1="476.07581706683925" y1="161.3193984672022" x2="485.7269330463589"  />
<line style="stroke:#9c9c9c; stroke-width:1; " y2="209.53658913026948" x1="428.06763823076756" y1="228.53658913026948" x2="460.97660357457625"  />
<line style="stroke:#b4b4b4; stroke-width:1; " y2="187.62771805706672" x1="460.97660357457625" y1="209.53658913026948" x2="479.36032921161126"  />
<line style="stroke:#cbcbcb; stroke-width:1; " y2="169.58561973797728" x1="479.36032921161126" y1="187.62771805706672" x2="485.9271159634641"  />
<line style="stroke:#e2e2e2; stroke-width:1; " y2="159.7856197379773" x1="485.9271159634641" y1="169.58561973797728" x2="485.9271159634641"  />
<line style="stroke:#e2e2e2; stroke-width:1; " y2="162.0783841954113" x1="485.9271159634641" y1="169.58561973797728" x2="492.22643453839214"  />
<line style="stroke:#cbcbcb; stroke-width:1; " y2="178.02771805706672" x1="479.36032921161126" y1="187.62771805706672" x2="495.9880169642725"  />
<line style="stroke:#e2e2e2; stroke-width:1; " y2="170.52048251450074" x1="495.9880169642725" y1="178.02771805706672" x2="502.28733553920057"  />
<line style="stroke:#e2e2e2; stroke-width:1; " y2="176.3259659159308" x1="495.9880169642725" y1="178.02771805706672" x2="505.63913294379216"  />
<line style="stroke:#b4b4b4; stroke-width:1; " y2="204.57025124899528" x1="460.97660357457625" y1="209.53658913026948" x2="489.1421053107254"  />
<line style="stroke:#cbcbcb; stroke-width:1; " y2="194.97025124899528" x1="489.1421053107254" y1="204.57025124899528" x2="505.76979306338666"  />
<line style="stroke:#e2e2e2; stroke-width:1; " y2="187.4630157064293" x1="505.76979306338666" y1="194.97025124899528" x2="512.0691116383148"  />
<line style="stroke:#e2e2e2; stroke-width:1; " y2="193.26849910785936" x1="505.76979306338666" y1="194.97025124899528" x2="515.4209090429063"  />
<line style="stroke:#cbcbcb; stroke-width:1; " y2="207.90429626020034" x1="489.1421053107254" y1="204.57025124899528" x2="508.0504141685598"  />
<line style="stroke:#e2e2e2; stroke-width:1; " y2="206.2025441190644" x1="508.0504141685598" y1="207.90429626020034" x2="517.7015301480794"  />
<line style="stroke:#e2e2e2; stroke-width:1; " y2="212.80429626020035" x1="508.0504141685598" y1="207.90429626020034" x2="516.5374631256473"  />
<line style="stroke:#858585; stroke-width:1; " y2="256.6161721126965" x1="397.5995055316256" y1="264.847095734109" x2="444.27939302440427"  />
<line style="stroke:#9c9c9c; stroke-width:1; " y2="237.61617211269652" x1="444.27939302440427" y1="256.6161721126965" x2="477.18835836821296"  />
<line style="stroke:#b4b4b4; stroke-width:1; " y2="215.70730103949376" x1="477.18835836821296" y1="237.61617211269652" x2="495.572084005248"  />
<line style="stroke:#cbcbcb; stroke-width:1; " y2="197.66520272040432" x1="495.572084005248" y1="215.70730103949376" x2="502.1388707571008"  />
<line style="stroke:#e2e2e2; stroke-width:1; " y2="187.86520272040434" x1="502.1388707571008" y1="197.66520272040432" x2="502.1388707571008"  />
<line style="stroke:#e2e2e2; stroke-width:1; " y2="190.15796717783834" x1="502.1388707571008" y1="197.66520272040432" x2="508.43818933202886"  />
<line style="stroke:#cbcbcb; stroke-width:1; " y2="206.10730103949376" x1="495.572084005248" y1="215.70730103949376" x2="512.1997717579092"  />
<line style="stroke:#e2e2e2; stroke-width:1; " y2="198.60006549692778" x1="512.1997717579092" y1="206.10730103949376" x2="518.4990903328372"  />
<line style="stroke:#e2e2e2; stroke-width:1; " y2="204.40554889835784" x1="512.1997717579092" y1="206.10730103949376" x2="521.8508877374288"  />
<line style="stroke:#b4b4b4; stroke-width:1; " y2="232.64983423142232" x1="477.18835836821296" y1="237.61617211269652" x2="505.3538601043621"  />
<line style="stroke:#cbcbcb; stroke-width:1; " y2="223.04983423142232" x1="505.3538601043621" y1="232.64983423142232" x2="521.9815478570233"  />
<line style="stroke:#e2e2e2; stroke-width:1; " y2="215.54259868885634" x1="521.9815478570233" y1="223.04983423142232" x2="528.2808664319514"  />
<line style="stroke:#e2e2e2; stroke-width:1; " y2="221.3480820902864" x1="521.9815478570233" y1="223.04983423142232" x2="531.632663836543"  />
<line style="stroke:#cbcbcb; stroke-width:1; " y2="235.98387924262738" x1="505.3538601043621" y1="232.64983423142232" x2="524.2621689621965"  />
<line style="stroke:#e2e2e2; stroke-width:1; " y2="234.28212710149145" x1="524.2621689621965" y1="235.98387924262738" x2="533.9132849417161"  />
<line style="stroke:#e2e2e2; stroke-width:1; " y2="240.8838792426274" x1="524.2621689621965" y1="235.98387924262738" x2="532.749217919284"  />
<line style="stroke:#9c9c9c; stroke-width:1; " y2="263.2148028640399" x1="444.27939302440427" y1="256.6161721126965" x2="481.7020876388682"  />
<line style="stroke:#b4b4b4; stroke-width:1; " y2="258.24846498276565" x1="481.7020876388682" y1="263.2148028640399" x2="509.86758937501736"  />
<line style="stroke:#cbcbcb; stroke-width:1; " y2="248.64846498276566" x1="509.86758937501736" y1="258.24846498276565" x2="526.4952771276786"  />
<line style="stroke:#e2e2e2; stroke-width:1; " y2="241.14122944019968" x1="526.4952771276786" y1="248.64846498276566" x2="532.7945957026067"  />
<line style="stroke:#e2e2e2; stroke-width:1; " y2="246.94671284162973" x1="526.4952771276786" y1="248.64846498276566" x2="536.1463931071983"  />
<line style="stroke:#cbcbcb; stroke-width:1; " y2="261.58250999397075" x1="509.86758937501736" y1="258.24846498276565" x2="528.7758982328518"  />
<line style="stroke:#e2e2e2; stroke-width:1; " y2="259.88075785283485" x1="528.7758982328518" y1="261.58250999397075" x2="538.4270142123714"  />
<line style="stroke:#e2e2e2; stroke-width:1; " y2="266.4825099939707" x1="528.7758982328518" y1="261.58250999397075" x2="537.2629471899393"  />
<line style="stroke:#b4b4b4; stroke-width:1; " y2="277.5148028640399" x1="481.7020876388682" y1="263.2148028640399" x2="506.47041418710313"  />
<line style="stroke:#cbcbcb; stroke-width:1; " y2="280.8488478752449" x1="506.47041418710313" y1="277.5148028640399" x2="525.3787230449375"  />
<line style="stroke:#e2e2e2; stroke-width:1; " y2="279.14709573410903" x1="525.3787230449375" y1="280.8488478752449" x2="535.0298390244571"  />
<line style="stroke:#e2e2e2; stroke-width:1; " y2="285.7488478752449" x1="525.3787230449375" y1="280.8488478752449" x2="533.865772002025"  />
<line style="stroke:#cbcbcb; stroke-width:1; " y2="292.22285617192426" x1="506.47041418710313" y1="277.5148028640399" x2="518.8119362930847"  />
<line style="stroke:#e2e2e2; stroke-width:1; " y2="297.12285617192424" x1="518.8119362930847" y1="292.22285617192426" x2="527.2989852501722"  />
<line style="stroke:#e2e2e2; stroke-width:1; " y2="301.43184385562614" x1="518.8119362930847" y1="292.22285617192426" x2="522.1637336976763"  />
</svg>
